<svg xmlns="http://www.w3.org/2000/svg" viewBox="0 0 713.92 382.14"><defs><style>.cls-1{fill:#58595b;}.cls-2{fill:#f1f2f2;}</style></defs><g id="Layer_1" data-name="Layer 1"><path class="cls-1" d="M857,691.07H143V549.44H857Zm-707.59-6.33H850.63v-129H149.37Z" transform="translate(-143.04 -308.93)"/><path class="cls-1" d="M345.14,386c2.11,3.87,5.36,3.65,8.83,3,7.1-1.31,14.21-2.53,21.31-3.8,3.51-.62,5.58-2.77,5.62-5.78a5.74,5.74,0,0,0-5-5.83,15.13,15.13,0,0,0-4.36.46c-4.21.73-8.41,1.53-12.61,2.28a11.32,11.32,0,0,1-1.87,0c.22-2.71.42-5.34.68-8a1.42,1.42,0,0,1,.7-.9c3.81-2,5.13-5.39,4.68-9.34-.52-4.58-1.47-9.1-2.37-13.62a2.51,2.51,0,0,0-1.6-1.49c-4.06-1.07-8.15-2-12.23-3-2.91-.71-4.41-2.79-4-5.51.37-2.52,2.43-4,5.4-3.78a1.45,1.45,0,0,1,.42,0c6.57,3,12.7.07,18.93-1.43,3.4-.82,6.76-1.8,10.14-2.71,2.78-.76,4.08-2.57,3.44-4.79s-2.61-3.08-5.3-2.38c-8.74,2.26-17.47,4.56-26.2,6.84-1.62.42-3.25.82-4.87,1.27-4,1.08-5.85,3.6-5.5,7.7a19.87,19.87,0,0,0,1,4.47c1.94,5.91,4,11.78,5.88,17.7a3.67,3.67,0,0,1-.49,2.66,169.76,169.76,0,0,0-19.43,43,5.71,5.71,0,0,0,2.71,6.65,5.6,5.6,0,0,0,7.09-1.19,12.92,12.92,0,0,0,1.69-3.55c2.27-5.95,4.48-11.92,6.73-17.87A10.42,10.42,0,0,1,345.14,386Z" transform="translate(-143.04 -308.93)"/><path class="cls-1" d="M321.8,319.32a10.36,10.36,0,1,0,10.26-10.39A10.38,10.38,0,0,0,321.8,319.32Z" transform="translate(-143.04 -308.93)"/><path class="cls-1" d="M385.11,342.25c0-1.06-1.25-2.16-3.14-2.61q-16.71-4-33.45-7.93a3.84,3.84,0,0,0-4.63,2.64,3.62,3.62,0,0,0,2.74,4.48c6.3,1.59,12.62,3.07,18.94,4.57,5,1.2,10.06,2.4,15.11,3.53C383.12,347.48,385.15,345.74,385.11,342.25Z" transform="translate(-143.04 -308.93)"/><polygon class="cls-1" points="145.62 240.51 292.92 31.91 588.33 240.51 145.62 240.51"/><polygon class="cls-2" points="432.92 151.66 384.94 159.92 376.67 111.94 432.92 151.66"/><polygon class="cls-2" points="367.36 105.55 319.38 113.81 311.11 65.83 367.36 105.55"/><rect class="cls-2" x="467.54" y="426.02" width="48.69" height="48.69" transform="translate(-212.35 -218.9) rotate(-9.77)"/><polygon class="cls-2" points="354.64 246.84 305.23 246.84 297.98 204.7 345.96 196.44 354.64 246.84"/><polygon class="cls-2" points="201.05 191.59 249.03 183.33 240.76 135.34 201.05 191.59"/><polygon class="cls-2" points="247.4 126.21 295.38 117.94 287.12 69.96 247.4 126.21"/><rect class="cls-2" x="395.56" y="438.41" width="48.69" height="48.69" transform="translate(769.22 538.6) rotate(170.23)"/><path class="cls-1" d="M221.28,506h-2.06v2.26q0,18.09,0,36.19c0,3.31-1.32,5.49-3.67,6.22a5.49,5.49,0,0,1-7.25-5,19,19,0,0,1,0-2q0-33,0-66c0-1.54-.3-2.26-1.94-2.79a21.46,21.46,0,0,1-15-19.68c-.12-2.52-.08-5.06,0-7.58.14-3,1.65-4.45,4.14-4.16,2.23.26,3.28,2.13,2.91,5-.72,5.73-.16,11.2,3.84,15.76a13.94,13.94,0,0,0,10.6,4.75c4.8.1,9.6,0,14.4,0a14.5,14.5,0,0,0,14.42-12.65,52.74,52.74,0,0,0,.08-8.34c-.12-2.57.93-4.34,3-4.56,2.34-.25,3.86,1.15,4.08,3.83.38,4.73.37,9.44-1.18,14A20.61,20.61,0,0,1,234,474.87a2.27,2.27,0,0,0-1.87,2.64q.08,33.5,0,67c0,4.43-2.84,7-6.75,6.2-2.59-.55-4.12-2.55-4.13-5.56,0-8,0-16,0-24Z" transform="translate(-143.04 -308.93)"/><path class="cls-1" d="M220.38,446.64a9.88,9.88,0,1,1-10.13,9.71A10,10,0,0,1,220.38,446.64Z" transform="translate(-143.04 -308.93)"/><path class="cls-1" d="M305.22,585.19l-40,70.77L248.42,625.8,230.65,656l-38.48-70.77h21.46L231,617.11l17.21-31.92,17.39,31.92,17.21-31.92Zm-75.31,33.58-17.2-32.19H194.3L221,634.69Zm44.22,17.86-25.71-48.48-9.53,18,26.27,45.89Z" transform="translate(-143.04 -308.93)"/><path class="cls-1" d="M301.52,656.24l29.14-59-5.83-11.66h21.56l34.78,70.77ZM379,654.85,345.55,587h-18.5l26.55,53.19H330.75l-6.94,14.71Z" transform="translate(-143.04 -308.93)"/><path class="cls-1" d="M431.77,656.43H413l-10.64-15.18.1,14.81H385V584.73l17.76.09a26,26,0,0,1,18.88,7.87,25.59,25.59,0,0,1,7.77,18.78,25.87,25.87,0,0,1-3.66,13.46,26.59,26.59,0,0,1-9.76,9.66Zm-29.32-18.14L413.73,655h15.36L414,634.13q14-8,14-22.66a23.94,23.94,0,0,0-7.54-17.81,25.29,25.29,0,0,0-18.09-7.45l.1,14.8A10.5,10.5,0,0,1,413,611.47a10,10,0,0,1-3,7.26,10.19,10.19,0,0,1-7.58,3Z" transform="translate(-143.04 -308.93)"/><path class="cls-1" d="M491.44,656H437.51V584.17h53.93v18H473.31v18H455.64V638h35.8Zm-1.39-55.23V585.56H438.89v15.17Zm0,53.85V639.4H438.89v15.18Z" transform="translate(-143.04 -308.93)"/><path class="cls-1" d="M552.22,656.33H534.09v-35.8H516.51v35.8H498.38V584.45h18.13v18.13h17.58V584.45h18.13Zm-37.09-53.75V585.84H499.77v16.74Zm-15.36,17.95V655h15.36V620.53Zm51.07-17.95V585.84H535.48v16.74Zm-15.36,17.95V655h15.36V620.53Z" transform="translate(-143.04 -308.93)"/><path class="cls-1" d="M627.43,620.07a35.76,35.76,0,0,1-35.71,35.8,34.07,34.07,0,0,1-25.11-10.5,36.07,36.07,0,0,1,0-50.7,35.45,35.45,0,0,1,50.37,0A34.69,34.69,0,0,1,627.43,620.07Zm-1.38,0a33.34,33.34,0,0,0-10-24.42,34.1,34.1,0,0,0-48.43,0,34.73,34.73,0,0,0,0,48.75,34.13,34.13,0,0,0,48.43,0A33.23,33.23,0,0,0,626.05,620.07Zm-18.41,0a16.19,16.19,0,1,1-32.38,0,16.19,16.19,0,0,1,32.38,0Z" transform="translate(-143.04 -308.93)"/><path class="cls-1" d="M684.7,629.23a27,27,0,1,1-53.94,0V584.08H684.7Zm-1.39,0V585.47H668.14v43.76a10.59,10.59,0,0,1-10.45,10.45,9.87,9.87,0,0,1-7.31-3.1,10.1,10.1,0,0,1-3.06-7.35V585.47H632.15v43.76a25.58,25.58,0,1,0,51.16,0Z" transform="translate(-143.04 -308.93)"/><path class="cls-1" d="M746.59,602a17.6,17.6,0,0,0-12.86,5.32,17.29,17.29,0,0,0-5.37,12.72A34.7,34.7,0,0,1,718,645.37a33.92,33.92,0,0,1-25.07,10.5l-.09-18a17.37,17.37,0,0,0,12.72-5.18,17.07,17.07,0,0,0,5.23-12.58,35.76,35.76,0,0,1,35.71-35.9Zm-1.39-1.3-.09-15.17a33,33,0,0,0-23.36,10.59,33.5,33.5,0,0,0-9.58,23.92,19.07,19.07,0,0,1-17.94,19.06l.09,15.35a32.64,32.64,0,0,0,23.17-10.54A33.44,33.44,0,0,0,727,620.07a19.57,19.57,0,0,1,18.22-19.34Z" transform="translate(-143.04 -308.93)"/><path class="cls-1" d="M807.83,656H753.9V584.17h53.93v18H789.7v18H772V638h35.8Zm-1.39-55.23V585.56H755.28v15.17Zm0,53.85V639.4H755.28v15.18Z" transform="translate(-143.04 -308.93)"/><path class="cls-1" d="M163.66,570.12l5.83,2.5-.89,2-7.86-3.52v-1.91l7.86-3.49.89,1.94Z" transform="translate(-143.04 -308.93)"/><path class="cls-1" d="M171.52,578.68l5.48-16.3h2.88l-5.48,16.3Z" transform="translate(-143.04 -308.93)"/><path class="cls-1" d="M194.2,564.49l-1.68,2.36a6.12,6.12,0,0,0-1.74-1,5.35,5.35,0,0,0-1.88-.35,4.25,4.25,0,0,0-2.25.6,4.1,4.1,0,0,0-1.55,1.67,4.94,4.94,0,0,0-.56,2.37,4.85,4.85,0,0,0,.58,2.38,4.2,4.2,0,0,0,1.57,1.64,4.27,4.27,0,0,0,2.21.59,4.94,4.94,0,0,0,2.1-.46,7.31,7.31,0,0,0,1.83-1.17l1.62,2.37a7.54,7.54,0,0,1-2.51,1.68,7.74,7.74,0,0,1-3,.58,8.07,8.07,0,0,1-3.93-1,7.32,7.32,0,0,1-2.8-2.72,7.94,7.94,0,0,1,0-7.82,7.34,7.34,0,0,1,2.8-2.73,8.47,8.47,0,0,1,6.82-.48A6.83,6.83,0,0,1,194.2,564.49Z" transform="translate(-143.04 -308.93)"/><path class="cls-1" d="M209.58,566.21a7.92,7.92,0,0,1,0,7.81,7.32,7.32,0,0,1-2.79,2.73,8.17,8.17,0,0,1-7.76,0,7.41,7.41,0,0,1-2.8-2.73,7.85,7.85,0,0,1,0-7.81,7.41,7.41,0,0,1,2.8-2.73,8.17,8.17,0,0,1,7.76,0A7.32,7.32,0,0,1,209.58,566.21Zm-10.44,1.52a5.12,5.12,0,0,0,0,4.77,4.3,4.3,0,0,0,1.58,1.64,4.21,4.21,0,0,0,2.17.59,4.22,4.22,0,0,0,3.77-2.23,5.21,5.21,0,0,0,0-4.78,4.23,4.23,0,0,0-1.57-1.65,4.29,4.29,0,0,0-2.2-.59,4.21,4.21,0,0,0-2.17.59A4.28,4.28,0,0,0,199.14,567.73Z" transform="translate(-143.04 -308.93)"/><path class="cls-1" d="M224.82,566.41a7.57,7.57,0,0,1,.9,3.71,7.65,7.65,0,0,1-.9,3.73,6.4,6.4,0,0,1-2.64,2.59,8.72,8.72,0,0,1-4.16.94h-5.46V562.89H218a8.61,8.61,0,0,1,4.16,1A6.36,6.36,0,0,1,224.82,566.41Zm-8.95,8.15h1.86a4.54,4.54,0,0,0,3.43-1.24,4.9,4.9,0,0,0,0-6.41,4.6,4.6,0,0,0-3.44-1.22h-1.86Z" transform="translate(-143.04 -308.93)"/><path class="cls-1" d="M231,565.71v3h6.42v2.61H231v3.24h7.45v2.82H227.66V562.89h10.55v2.82Z" transform="translate(-143.04 -308.93)"/></g></svg>